<?xml version="1.0" encoding="UTF-8"?>
<svg xmlns="http://www.w3.org/2000/svg" xmlns:xlink="http://www.w3.org/1999/xlink" width="15px" height="15px" viewBox="0 0 15 15" version="1.1">
<g id="surface1">
<path style=" stroke:none;fill-rule:nonzero;fill:#fff;fill-opacity:1;" d="M 3.386719 2.179688 C 3.414062 2.203125 3.441406 2.226562 3.46875 2.25 C 3.476562 2.257812 3.484375 2.261719 3.492188 2.269531 C 3.640625 2.40625 3.757812 2.660156 3.777344 2.863281 C 3.777344 2.957031 3.761719 3.046875 3.742188 3.140625 C 3.742188 3.148438 3.738281 3.15625 3.738281 3.164062 C 3.675781 3.476562 3.585938 3.765625 3.375 4.007812 C 3.347656 4.042969 3.332031 4.070312 3.320312 4.109375 C 3.316406 4.121094 3.316406 4.132812 3.3125 4.144531 C 3.304688 4.160156 3.304688 4.160156 3.300781 4.179688 C 3.292969 4.203125 3.285156 4.230469 3.277344 4.253906 C 3.277344 4.265625 3.273438 4.277344 3.269531 4.289062 C 3.195312 4.535156 3.09375 4.796875 2.9375 5 C 2.890625 5.0625 2.855469 5.125 2.847656 5.203125 C 2.867188 5.277344 2.917969 5.335938 2.964844 5.394531 C 3.148438 5.632812 3.273438 5.933594 3.34375 6.226562 C 3.367188 6.320312 3.410156 6.398438 3.460938 6.480469 C 3.625 6.757812 3.691406 7.089844 3.738281 7.40625 C 3.738281 7.417969 3.742188 7.425781 3.742188 7.4375 C 3.757812 7.554688 3.742188 7.671875 3.730469 7.789062 C 3.730469 7.8125 3.726562 7.835938 3.722656 7.859375 C 3.707031 8.042969 3.683594 8.226562 3.660156 8.410156 C 3.65625 8.453125 3.648438 8.492188 3.644531 8.53125 C 3.644531 8.542969 3.640625 8.558594 3.640625 8.570312 C 3.636719 8.582031 3.636719 8.59375 3.636719 8.605469 C 3.632812 8.621094 3.632812 8.621094 3.632812 8.632812 C 3.632812 8.679688 3.65625 8.703125 3.6875 8.730469 C 3.808594 8.828125 3.945312 8.871094 4.089844 8.910156 C 4.289062 8.964844 4.480469 9.027344 4.628906 9.175781 C 4.636719 9.183594 4.644531 9.191406 4.652344 9.199219 C 4.785156 9.335938 4.851562 9.511719 4.902344 9.691406 C 4.941406 9.828125 4.941406 9.828125 5.023438 9.941406 C 5.039062 9.960938 5.039062 9.960938 5.050781 9.996094 C 5.066406 10.003906 5.082031 10.011719 5.097656 10.019531 C 5.109375 10.027344 5.121094 10.039062 5.128906 10.046875 C 5.191406 10.089844 5.261719 10.101562 5.335938 10.117188 C 5.609375 10.183594 5.859375 10.269531 6.058594 10.476562 C 6.066406 10.484375 6.074219 10.492188 6.082031 10.5 C 6.179688 10.601562 6.3125 10.816406 6.316406 10.960938 C 6.300781 11.199219 6.242188 11.449219 6.058594 11.613281 C 5.859375 11.777344 5.566406 11.800781 5.316406 11.824219 C 5.238281 11.832031 5.167969 11.84375 5.097656 11.882812 C 5.089844 11.886719 5.078125 11.894531 5.070312 11.898438 C 4.988281 11.949219 4.925781 12.015625 4.875 12.09375 C 4.882812 12.203125 4.964844 12.28125 5.042969 12.351562 C 5.054688 12.359375 5.0625 12.367188 5.074219 12.375 C 5.082031 12.378906 5.089844 12.386719 5.09375 12.390625 C 5.175781 12.445312 5.246094 12.4375 5.339844 12.425781 C 5.355469 12.421875 5.371094 12.421875 5.386719 12.417969 C 5.433594 12.414062 5.476562 12.40625 5.523438 12.402344 C 5.558594 12.398438 5.589844 12.394531 5.621094 12.390625 C 5.695312 12.382812 5.765625 12.371094 5.839844 12.363281 C 5.851562 12.363281 5.859375 12.359375 5.871094 12.359375 C 5.996094 12.34375 6.121094 12.328125 6.242188 12.304688 C 6.257812 12.300781 6.257812 12.300781 6.273438 12.300781 C 6.339844 12.289062 6.386719 12.269531 6.429688 12.214844 C 6.433594 12.203125 6.441406 12.195312 6.445312 12.1875 C 6.453125 12.175781 6.460938 12.167969 6.46875 12.15625 C 6.496094 12.113281 6.5 12.082031 6.503906 12.03125 C 6.507812 12.015625 6.507812 12 6.507812 11.984375 C 6.511719 11.972656 6.511719 11.972656 6.511719 11.957031 C 6.523438 11.839844 6.535156 11.71875 6.574219 11.605469 C 6.574219 11.597656 6.578125 11.589844 6.582031 11.582031 C 6.613281 11.492188 6.679688 11.429688 6.761719 11.382812 C 7.042969 11.253906 7.402344 11.277344 7.707031 11.261719 C 7.761719 11.257812 7.8125 11.257812 7.867188 11.253906 C 7.972656 11.25 8.078125 11.246094 8.183594 11.238281 C 8.207031 11.238281 8.226562 11.238281 8.25 11.238281 C 8.429688 11.230469 8.609375 11.222656 8.789062 11.222656 C 8.816406 11.222656 8.84375 11.222656 8.871094 11.222656 C 8.941406 11.222656 9.007812 11.222656 9.078125 11.222656 C 9.109375 11.222656 9.136719 11.222656 9.167969 11.222656 C 9.621094 11.222656 10.078125 11.230469 10.535156 11.25 C 10.566406 11.253906 10.601562 11.253906 10.636719 11.257812 C 10.644531 11.257812 10.652344 11.257812 10.660156 11.257812 C 10.667969 11.257812 10.675781 11.257812 10.683594 11.257812 C 10.734375 11.261719 10.78125 11.261719 10.832031 11.265625 C 11.007812 11.277344 11.175781 11.21875 11.339844 11.167969 C 11.382812 11.15625 11.425781 11.144531 11.464844 11.132812 C 11.53125 11.117188 11.59375 11.097656 11.660156 11.078125 C 11.722656 11.058594 11.785156 11.042969 11.851562 11.023438 C 11.867188 11.019531 11.878906 11.015625 11.894531 11.011719 C 11.925781 11.003906 11.953125 10.996094 11.980469 10.988281 C 12 10.984375 12 10.984375 12.019531 10.976562 C 12.039062 10.972656 12.039062 10.972656 12.054688 10.96875 C 12.113281 10.945312 12.128906 10.886719 12.148438 10.832031 C 12.199219 10.71875 12.261719 10.621094 12.339844 10.523438 C 12.351562 10.511719 12.351562 10.511719 12.359375 10.496094 C 12.421875 10.421875 12.496094 10.367188 12.574219 10.3125 C 12.585938 10.304688 12.585938 10.304688 12.601562 10.292969 C 12.746094 10.199219 12.917969 10.148438 13.082031 10.101562 C 13.09375 10.097656 13.105469 10.09375 13.121094 10.089844 C 13.3125 10.039062 13.476562 10.113281 13.644531 10.207031 C 13.898438 10.355469 14.03125 10.601562 14.109375 10.875 C 14.113281 10.886719 14.113281 10.886719 14.117188 10.898438 C 14.140625 10.96875 14.125 11.015625 14.101562 11.085938 C 14.097656 11.097656 14.09375 11.105469 14.089844 11.117188 C 14.027344 11.289062 13.949219 11.429688 13.816406 11.554688 C 13.808594 11.5625 13.800781 11.570312 13.792969 11.578125 C 13.683594 11.6875 13.527344 11.742188 13.382812 11.789062 C 13.28125 11.824219 13.207031 11.855469 13.136719 11.941406 C 13.128906 11.949219 13.121094 11.960938 13.113281 11.96875 C 13.050781 12.050781 13.019531 12.140625 12.992188 12.242188 C 12.921875 12.5 12.804688 12.726562 12.566406 12.867188 C 12.460938 12.925781 12.355469 12.960938 12.246094 12.988281 C 12.074219 13.035156 11.941406 13.109375 11.800781 13.21875 C 11.789062 13.226562 11.78125 13.234375 11.769531 13.238281 C 11.734375 13.273438 11.726562 13.300781 11.710938 13.34375 C 11.59375 13.648438 11.402344 13.855469 11.105469 13.992188 C 11.097656 13.996094 11.089844 14 11.082031 14.003906 C 11.074219 14.007812 11.066406 14.011719 11.058594 14.011719 C 10.980469 14.046875 10.902344 14.050781 10.816406 14.054688 C 10.804688 14.058594 10.804688 14.058594 10.792969 14.058594 C 10.761719 14.058594 10.734375 14.0625 10.703125 14.0625 C 10.683594 14.0625 10.664062 14.0625 10.644531 14.066406 C 10.601562 14.066406 10.558594 14.070312 10.515625 14.070312 C 10.460938 14.074219 10.40625 14.078125 10.351562 14.078125 C 10.308594 14.082031 10.269531 14.085938 10.226562 14.085938 C 10.207031 14.085938 10.1875 14.089844 10.167969 14.089844 C 9.785156 14.109375 9.785156 14.109375 9.652344 14.082031 C 9.644531 14.082031 9.636719 14.078125 9.625 14.078125 C 9.597656 14.074219 9.570312 14.066406 9.542969 14.0625 C 9.535156 14.058594 9.523438 14.058594 9.515625 14.054688 C 9.351562 14.023438 9.191406 13.988281 9.035156 13.933594 C 9.027344 13.929688 9.015625 13.925781 9.007812 13.925781 C 8.902344 13.890625 8.8125 13.847656 8.71875 13.789062 C 8.65625 13.757812 8.597656 13.761719 8.53125 13.757812 C 8.523438 13.757812 8.511719 13.757812 8.503906 13.757812 C 8.363281 13.753906 8.222656 13.75 8.082031 13.75 C 8.007812 13.746094 7.9375 13.746094 7.863281 13.742188 C 7.820312 13.742188 7.773438 13.742188 7.730469 13.738281 C 7.710938 13.738281 7.691406 13.738281 7.667969 13.738281 C 7.515625 13.734375 7.421875 13.765625 7.289062 13.839844 C 7.253906 13.855469 7.21875 13.871094 7.183594 13.882812 C 7.171875 13.886719 7.164062 13.890625 7.15625 13.890625 C 6.921875 13.972656 6.675781 14.019531 6.433594 14.0625 C 6.421875 14.066406 6.414062 14.066406 6.402344 14.070312 C 6.359375 14.074219 6.316406 14.078125 6.273438 14.078125 C 6.265625 14.078125 6.253906 14.078125 6.246094 14.078125 C 6.21875 14.078125 6.1875 14.078125 6.160156 14.082031 C 6.140625 14.082031 6.121094 14.082031 6.097656 14.082031 C 6.054688 14.082031 6.015625 14.085938 5.972656 14.085938 C 5.917969 14.085938 5.863281 14.085938 5.808594 14.089844 C 5.691406 14.09375 5.570312 14.09375 5.449219 14.097656 C 5.429688 14.097656 5.40625 14.097656 5.382812 14.097656 C 5.347656 14.097656 5.3125 14.101562 5.28125 14.101562 C 5.269531 14.101562 5.261719 14.101562 5.253906 14.101562 C 5.054688 14.101562 4.832031 13.980469 4.6875 13.851562 C 4.675781 13.84375 4.667969 13.832031 4.65625 13.824219 C 4.507812 13.6875 4.433594 13.519531 4.367188 13.332031 C 4.304688 13.160156 4.222656 13.039062 4.058594 12.960938 C 4.011719 12.941406 3.964844 12.929688 3.917969 12.917969 C 3.597656 12.824219 3.332031 12.65625 3.164062 12.359375 C 3.132812 12.304688 3.109375 12.25 3.085938 12.191406 C 3.039062 12.0625 2.96875 11.964844 2.839844 11.910156 C 2.808594 11.894531 2.773438 11.882812 2.742188 11.867188 C 2.472656 11.75 2.265625 11.523438 2.152344 11.25 C 2.140625 11.222656 2.132812 11.191406 2.121094 11.160156 C 2.117188 11.144531 2.113281 11.132812 2.109375 11.121094 C 2.101562 11.097656 2.09375 11.070312 2.085938 11.046875 C 2.054688 10.945312 2.003906 10.859375 1.917969 10.796875 C 1.910156 10.789062 1.902344 10.785156 1.894531 10.777344 C 1.804688 10.722656 1.710938 10.6875 1.609375 10.65625 C 1.332031 10.566406 1.125 10.421875 0.988281 10.160156 C 0.957031 10.09375 0.925781 10.027344 0.902344 9.957031 C 0.898438 9.949219 0.894531 9.9375 0.890625 9.929688 C 0.851562 9.820312 0.871094 9.710938 0.878906 9.597656 C 0.878906 9.585938 0.878906 9.574219 0.882812 9.566406 C 0.890625 9.480469 0.898438 9.398438 0.90625 9.316406 C 0.90625 9.296875 0.90625 9.296875 0.910156 9.277344 C 1.015625 8.242188 1.015625 8.242188 1.265625 7.863281 C 1.273438 7.855469 1.277344 7.84375 1.285156 7.835938 C 1.324219 7.777344 1.375 7.730469 1.429688 7.6875 C 1.4375 7.679688 1.445312 7.675781 1.453125 7.667969 C 1.519531 7.613281 1.644531 7.511719 1.734375 7.511719 C 1.734375 7.5 1.734375 7.488281 1.734375 7.472656 C 1.734375 7.335938 1.738281 7.199219 1.742188 7.058594 C 1.746094 7.050781 1.746094 7.039062 1.746094 7.027344 C 1.765625 6.617188 1.765625 6.617188 1.8125 6.421875 C 1.816406 6.394531 1.816406 6.367188 1.816406 6.339844 C 1.804688 6.335938 1.789062 6.328125 1.777344 6.324219 C 1.675781 6.285156 1.578125 6.242188 1.488281 6.175781 C 1.476562 6.167969 1.46875 6.160156 1.457031 6.152344 C 1.09375 5.878906 1.011719 5.402344 0.953125 4.976562 C 0.925781 4.757812 0.902344 4.535156 0.882812 4.3125 C 0.878906 4.300781 0.878906 4.300781 0.878906 4.289062 C 0.855469 4.023438 0.855469 4.023438 0.902344 3.886719 C 0.90625 3.878906 0.910156 3.867188 0.914062 3.855469 C 1.011719 3.578125 1.179688 3.382812 1.449219 3.253906 C 1.503906 3.230469 1.5625 3.214844 1.621094 3.203125 C 1.730469 3.171875 1.800781 3.125 1.875 3.035156 C 1.886719 3.019531 1.886719 3.019531 1.898438 3.007812 C 1.960938 2.929688 1.992188 2.855469 2.015625 2.757812 C 2.066406 2.582031 2.125 2.433594 2.25 2.296875 C 2.257812 2.289062 2.261719 2.28125 2.269531 2.273438 C 2.390625 2.144531 2.566406 2.074219 2.734375 2.023438 C 2.742188 2.019531 2.75 2.015625 2.761719 2.011719 C 2.964844 1.953125 3.21875 2.066406 3.386719 2.179688 Z M 2.84375 9.398438 C 2.773438 9.46875 2.722656 9.550781 2.671875 9.632812 C 2.667969 9.640625 2.664062 9.648438 2.65625 9.65625 C 2.609375 9.734375 2.609375 9.734375 2.589844 9.828125 C 2.609375 9.898438 2.664062 9.960938 2.707031 10.019531 C 2.714844 10.03125 2.722656 10.039062 2.726562 10.050781 C 2.769531 10.09375 2.816406 10.136719 2.871094 10.160156 C 2.960938 10.140625 3.019531 10.058594 3.066406 9.984375 C 3.082031 9.964844 3.09375 9.945312 3.105469 9.925781 C 3.113281 9.917969 3.117188 9.90625 3.125 9.898438 C 3.152344 9.84375 3.15625 9.808594 3.140625 9.753906 C 3.132812 9.726562 3.125 9.703125 3.117188 9.679688 C 3.109375 9.660156 3.109375 9.660156 3.105469 9.644531 C 3.058594 9.527344 2.992188 9.441406 2.894531 9.363281 C 2.871094 9.363281 2.859375 9.382812 2.84375 9.398438 Z M 3.929688 10.742188 C 3.917969 10.746094 3.910156 10.75 3.902344 10.753906 C 3.828125 10.792969 3.769531 10.839844 3.714844 10.90625 C 3.710938 10.917969 3.703125 10.925781 3.695312 10.9375 C 3.691406 10.941406 3.683594 10.949219 3.679688 10.957031 C 3.757812 11.128906 3.875 11.222656 4.042969 11.296875 C 4.167969 11.21875 4.28125 11.117188 4.324219 10.96875 C 4.3125 10.925781 4.304688 10.917969 4.277344 10.886719 C 4.269531 10.875 4.269531 10.875 4.257812 10.859375 C 4.199219 10.792969 4.136719 10.738281 4.054688 10.699219 C 4.007812 10.699219 3.96875 10.722656 3.929688 10.742188 Z M 3.929688 10.742188 "/>
<path style=" stroke:none;fill-rule:nonzero;fill:#fff;fill-opacity:1;" d="M 6.503906 0.984375 C 6.519531 0.988281 6.519531 0.988281 6.53125 0.996094 C 6.808594 1.117188 6.980469 1.324219 7.101562 1.59375 C 7.105469 1.601562 7.109375 1.609375 7.113281 1.617188 C 7.160156 1.730469 7.132812 1.851562 7.109375 1.96875 C 7.105469 1.988281 7.105469 1.988281 7.101562 2.007812 C 7.058594 2.226562 6.984375 2.445312 6.789062 2.574219 C 6.6875 2.640625 6.578125 2.675781 6.460938 2.699219 C 6.363281 2.722656 6.363281 2.722656 6.292969 2.789062 C 6.289062 2.796875 6.285156 2.804688 6.28125 2.8125 C 6.273438 2.824219 6.273438 2.824219 6.265625 2.835938 C 6.238281 2.882812 6.234375 2.929688 6.226562 2.980469 C 6.222656 2.996094 6.222656 2.996094 6.21875 3.011719 C 6.214844 3.046875 6.207031 3.082031 6.203125 3.121094 C 6.195312 3.144531 6.191406 3.167969 6.1875 3.195312 C 6.179688 3.246094 6.171875 3.300781 6.164062 3.351562 C 6.152344 3.417969 6.140625 3.484375 6.128906 3.554688 C 6.121094 3.605469 6.113281 3.65625 6.101562 3.707031 C 6.097656 3.734375 6.09375 3.757812 6.089844 3.78125 C 6.070312 3.914062 6.050781 4.035156 6.070312 4.171875 C 6.070312 4.183594 6.074219 4.195312 6.074219 4.207031 C 6.117188 4.519531 6.195312 4.839844 6.445312 5.050781 C 6.445312 5.058594 6.445312 5.066406 6.445312 5.074219 C 6.453125 5.074219 6.460938 5.074219 6.46875 5.074219 C 6.480469 5.085938 6.488281 5.097656 6.5 5.113281 C 6.542969 5.164062 6.589844 5.199219 6.644531 5.238281 C 6.65625 5.25 6.65625 5.25 6.667969 5.257812 C 6.683594 5.269531 6.703125 5.28125 6.71875 5.292969 C 6.996094 5.5 7.101562 5.832031 7.179688 6.15625 C 7.183594 6.167969 7.183594 6.175781 7.1875 6.1875 C 7.191406 6.210938 7.199219 6.234375 7.203125 6.261719 C 7.207031 6.273438 7.210938 6.285156 7.210938 6.296875 C 7.214844 6.308594 7.21875 6.320312 7.21875 6.332031 C 7.253906 6.433594 7.335938 6.511719 7.417969 6.574219 C 7.429688 6.582031 7.4375 6.589844 7.449219 6.597656 C 7.503906 6.628906 7.566406 6.640625 7.628906 6.652344 C 7.886719 6.710938 8.144531 6.792969 8.34375 6.972656 C 8.351562 6.980469 8.363281 6.988281 8.375 7 C 8.492188 7.109375 8.566406 7.242188 8.628906 7.390625 C 8.644531 7.429688 8.644531 7.429688 8.671875 7.457031 C 8.6875 7.5 8.675781 7.527344 8.660156 7.570312 C 8.648438 7.609375 8.640625 7.644531 8.628906 7.683594 C 8.628906 7.699219 8.625 7.710938 8.621094 7.726562 C 8.617188 7.742188 8.613281 7.757812 8.613281 7.773438 C 8.554688 8.03125 8.480469 8.289062 8.386719 8.539062 C 8.378906 8.554688 8.375 8.574219 8.367188 8.589844 C 8.359375 8.609375 8.359375 8.609375 8.351562 8.632812 C 8.339844 8.683594 8.351562 8.71875 8.367188 8.769531 C 8.367188 8.777344 8.371094 8.785156 8.375 8.796875 C 8.414062 8.910156 8.472656 8.996094 8.578125 9.058594 C 8.585938 9.0625 8.59375 9.066406 8.601562 9.074219 C 8.625 9.082031 8.625 9.082031 8.648438 9.082031 C 8.683594 9.066406 8.703125 9.035156 8.726562 9.003906 C 8.730469 8.996094 8.738281 8.992188 8.742188 8.984375 C 8.800781 8.90625 8.847656 8.824219 8.894531 8.742188 C 8.898438 8.734375 8.902344 8.726562 8.90625 8.71875 C 8.941406 8.660156 8.953125 8.601562 8.960938 8.535156 C 8.980469 8.375 9.015625 8.210938 9.140625 8.097656 C 9.148438 8.097656 9.15625 8.097656 9.164062 8.097656 C 9.164062 8.089844 9.164062 8.082031 9.164062 8.074219 C 9.363281 7.964844 9.59375 7.949219 9.816406 7.933594 C 9.828125 7.933594 9.828125 7.933594 9.839844 7.933594 C 9.96875 7.921875 10.09375 7.917969 10.222656 7.914062 C 10.253906 7.914062 10.28125 7.914062 10.3125 7.914062 C 10.332031 7.914062 10.355469 7.910156 10.375 7.910156 C 10.390625 7.910156 10.390625 7.910156 10.40625 7.910156 C 10.457031 7.910156 10.507812 7.90625 10.558594 7.90625 C 10.796875 7.902344 11.015625 7.890625 11.246094 7.8125 C 11.28125 7.800781 11.320312 7.792969 11.359375 7.78125 C 11.378906 7.777344 11.378906 7.777344 11.394531 7.773438 C 11.414062 7.769531 11.414062 7.769531 11.433594 7.765625 C 11.445312 7.761719 11.457031 7.757812 11.472656 7.753906 C 11.5625 7.734375 11.652344 7.714844 11.742188 7.699219 C 11.753906 7.695312 11.765625 7.695312 11.777344 7.691406 C 11.832031 7.683594 11.886719 7.671875 11.941406 7.664062 C 11.960938 7.660156 11.984375 7.65625 12.003906 7.652344 C 12.011719 7.652344 12.023438 7.648438 12.03125 7.648438 C 12.109375 7.632812 12.148438 7.601562 12.203125 7.539062 C 12.230469 7.484375 12.238281 7.429688 12.246094 7.367188 C 12.28125 7.128906 12.332031 6.894531 12.53125 6.742188 C 12.742188 6.601562 13.097656 6.523438 13.347656 6.566406 C 13.535156 6.609375 13.703125 6.675781 13.851562 6.796875 C 13.863281 6.804688 13.871094 6.8125 13.882812 6.820312 C 14.039062 6.953125 14.109375 7.164062 14.160156 7.355469 C 14.164062 7.375 14.171875 7.390625 14.175781 7.40625 C 14.207031 7.511719 14.175781 7.605469 14.148438 7.707031 C 14.144531 7.71875 14.140625 7.730469 14.140625 7.742188 C 14.066406 8 13.9375 8.21875 13.695312 8.351562 C 13.585938 8.410156 13.472656 8.453125 13.355469 8.484375 C 13.246094 8.511719 13.171875 8.558594 13.105469 8.652344 C 13.082031 8.699219 13.070312 8.746094 13.058594 8.796875 C 13.015625 8.957031 12.953125 9.101562 12.84375 9.222656 C 12.835938 9.230469 12.828125 9.238281 12.820312 9.25 C 12.628906 9.457031 12.335938 9.503906 12.074219 9.554688 C 11.835938 9.601562 11.601562 9.65625 11.378906 9.75 C 11.371094 9.753906 11.363281 9.757812 11.351562 9.761719 C 11.300781 9.785156 11.269531 9.808594 11.238281 9.855469 C 10.921875 10.269531 10.351562 10.433594 9.855469 10.523438 C 9.746094 10.53125 9.636719 10.511719 9.527344 10.5 C 9.519531 10.496094 9.507812 10.496094 9.496094 10.496094 C 9.332031 10.472656 9.164062 10.449219 8.996094 10.421875 C 8.988281 10.421875 8.976562 10.417969 8.964844 10.417969 C 8.636719 10.363281 8.636719 10.363281 8.542969 10.300781 C 8.535156 10.292969 8.527344 10.289062 8.523438 10.285156 C 8.457031 10.238281 8.390625 10.191406 8.332031 10.136719 C 8.324219 10.128906 8.316406 10.125 8.308594 10.117188 C 8.203125 10.019531 8.101562 9.875 8.0625 9.734375 C 8.042969 9.664062 8.015625 9.597656 7.96875 9.539062 C 7.960938 9.535156 7.953125 9.53125 7.945312 9.527344 C 7.945312 9.519531 7.945312 9.511719 7.945312 9.503906 C 7.9375 9.5 7.929688 9.496094 7.925781 9.492188 C 7.902344 9.480469 7.878906 9.46875 7.859375 9.457031 C 7.683594 9.371094 7.492188 9.359375 7.300781 9.34375 C 7.28125 9.34375 7.261719 9.339844 7.242188 9.339844 C 7.1875 9.335938 7.132812 9.328125 7.082031 9.324219 C 6.996094 9.316406 6.910156 9.3125 6.828125 9.304688 C 6.796875 9.300781 6.769531 9.296875 6.738281 9.296875 C 6.695312 9.292969 6.648438 9.289062 6.601562 9.285156 C 6.574219 9.28125 6.542969 9.277344 6.511719 9.277344 C 6.492188 9.273438 6.46875 9.273438 6.449219 9.269531 C 6.433594 9.269531 6.433594 9.269531 6.417969 9.269531 C 6.324219 9.261719 6.253906 9.21875 6.175781 9.164062 C 6.160156 9.152344 6.160156 9.152344 6.144531 9.144531 C 6.121094 9.125 6.09375 9.101562 6.070312 9.082031 C 6.054688 9.070312 6.054688 9.070312 6.042969 9.058594 C 5.914062 8.949219 5.75 8.769531 5.734375 8.597656 C 5.707031 8.25 5.707031 8.25 5.535156 7.957031 C 5.46875 7.90625 5.398438 7.871094 5.320312 7.851562 C 5.195312 7.820312 5.121094 7.777344 5.03125 7.679688 C 5.011719 7.660156 4.988281 7.640625 4.96875 7.621094 C 4.945312 7.59375 4.925781 7.570312 4.90625 7.542969 C 4.882812 7.507812 4.855469 7.484375 4.820312 7.457031 C 4.539062 7.238281 4.425781 6.886719 4.355469 6.554688 C 4.351562 6.539062 4.347656 6.527344 4.34375 6.511719 C 4.316406 6.367188 4.328125 6.238281 4.347656 6.09375 C 4.351562 6.085938 4.351562 6.078125 4.351562 6.066406 C 4.441406 5.484375 4.441406 5.484375 4.570312 5.238281 C 4.601562 5.171875 4.554688 5.085938 4.53125 5.023438 C 4.417969 4.6875 4.34375 4.304688 4.332031 3.949219 C 4.332031 3.9375 4.332031 3.929688 4.332031 3.921875 C 4.328125 3.890625 4.328125 3.859375 4.328125 3.832031 C 4.328125 3.8125 4.324219 3.789062 4.324219 3.769531 C 4.324219 3.726562 4.320312 3.679688 4.320312 3.636719 C 4.316406 3.582031 4.316406 3.527344 4.3125 3.472656 C 4.3125 3.429688 4.3125 3.386719 4.308594 3.34375 C 4.308594 3.320312 4.308594 3.300781 4.308594 3.28125 C 4.304688 3.175781 4.300781 3.066406 4.300781 2.960938 C 4.300781 2.953125 4.300781 2.941406 4.300781 2.933594 C 4.300781 2.863281 4.308594 2.804688 4.332031 2.742188 C 4.335938 2.726562 4.335938 2.726562 4.339844 2.710938 C 4.390625 2.5625 4.453125 2.425781 4.558594 2.308594 C 4.566406 2.300781 4.574219 2.289062 4.582031 2.28125 C 4.707031 2.128906 4.917969 2.0625 5.101562 2.007812 C 5.25 1.964844 5.378906 1.910156 5.484375 1.792969 C 5.492188 1.785156 5.5 1.78125 5.507812 1.773438 C 5.539062 1.734375 5.554688 1.695312 5.570312 1.648438 C 5.675781 1.359375 5.851562 1.140625 6.132812 1.007812 C 6.160156 0.996094 6.1875 0.984375 6.214844 0.972656 C 6.226562 0.96875 6.234375 0.964844 6.242188 0.960938 C 6.339844 0.921875 6.414062 0.945312 6.503906 0.984375 Z M 6.257812 7.511719 C 6.289062 7.519531 6.320312 7.527344 6.351562 7.535156 C 6.351562 7.519531 6.351562 7.503906 6.351562 7.488281 C 6.308594 7.484375 6.296875 7.488281 6.257812 7.511719 Z M 6.257812 7.511719 "/>
<path style=" stroke:none;fill-rule:nonzero;fill:#fff;fill-opacity:1;" d="M 8.800781 0.820312 C 8.8125 0.824219 8.820312 0.828125 8.828125 0.828125 C 8.964844 0.871094 9.09375 0.921875 9.210938 1.007812 C 9.21875 1.011719 9.226562 1.019531 9.234375 1.023438 C 9.398438 1.152344 9.484375 1.363281 9.539062 1.558594 C 9.542969 1.570312 9.546875 1.578125 9.546875 1.589844 C 9.574219 1.6875 9.578125 1.78125 9.578125 1.882812 C 9.578125 1.898438 9.578125 1.914062 9.578125 1.933594 C 9.574219 1.984375 9.574219 2.035156 9.574219 2.085938 C 9.574219 2.09375 9.574219 2.101562 9.574219 2.109375 C 9.574219 2.167969 9.570312 2.226562 9.570312 2.285156 C 9.570312 2.300781 9.570312 2.320312 9.570312 2.335938 C 9.570312 2.351562 9.566406 2.371094 9.566406 2.386719 C 9.566406 2.394531 9.566406 2.402344 9.566406 2.410156 C 9.566406 2.453125 9.566406 2.496094 9.5625 2.539062 C 9.558594 2.765625 9.566406 2.976562 9.609375 3.199219 C 9.613281 3.214844 9.617188 3.234375 9.617188 3.25 C 9.625 3.289062 9.632812 3.324219 9.640625 3.363281 C 9.648438 3.382812 9.648438 3.382812 9.652344 3.402344 C 9.714844 3.703125 9.714844 3.703125 9.890625 3.941406 C 9.914062 3.960938 9.914062 3.960938 9.941406 3.996094 C 10.085938 4.175781 10.464844 4.21875 10.675781 4.253906 C 10.683594 4.253906 10.691406 4.257812 10.699219 4.257812 C 10.84375 4.28125 10.984375 4.292969 11.132812 4.292969 C 11.152344 4.292969 11.171875 4.292969 11.191406 4.292969 C 11.234375 4.292969 11.277344 4.292969 11.320312 4.292969 C 11.375 4.292969 11.429688 4.292969 11.480469 4.292969 C 12.003906 4.292969 12.003906 4.292969 12.527344 4.257812 C 12.542969 4.253906 12.542969 4.253906 12.558594 4.253906 C 12.78125 4.230469 13.003906 4.199219 13.21875 4.121094 C 13.269531 4.109375 13.292969 4.125 13.335938 4.152344 C 13.433594 4.214844 13.515625 4.289062 13.59375 4.371094 C 13.601562 4.378906 13.605469 4.382812 13.613281 4.390625 C 13.78125 4.574219 13.886719 4.828125 13.957031 5.066406 C 13.957031 5.074219 13.960938 5.085938 13.964844 5.09375 C 13.988281 5.1875 13.96875 5.257812 13.925781 5.339844 C 13.921875 5.347656 13.917969 5.355469 13.914062 5.367188 C 13.738281 5.699219 13.46875 5.886719 13.117188 6 C 12.839844 6.085938 12.5625 6.144531 12.28125 6.195312 C 12.109375 6.222656 11.941406 6.257812 11.773438 6.308594 C 11.75 6.3125 11.730469 6.320312 11.710938 6.324219 C 11.699219 6.328125 11.6875 6.332031 11.675781 6.332031 C 11.664062 6.335938 11.664062 6.335938 11.648438 6.339844 C 11.601562 6.359375 11.582031 6.402344 11.554688 6.445312 C 11.453125 6.585938 11.277344 6.679688 11.117188 6.742188 C 11.109375 6.746094 11.101562 6.75 11.09375 6.75 C 10.972656 6.796875 10.972656 6.796875 10.921875 6.777344 C 10.898438 6.765625 10.878906 6.75 10.855469 6.734375 C 10.847656 6.730469 10.839844 6.726562 10.832031 6.71875 C 10.71875 6.644531 10.585938 6.546875 10.507812 6.433594 C 10.449219 6.347656 10.378906 6.3125 10.289062 6.265625 C 10.273438 6.257812 10.261719 6.25 10.246094 6.246094 C 10.21875 6.230469 10.1875 6.214844 10.15625 6.199219 C 10.089844 6.164062 10.019531 6.125 9.953125 6.089844 C 9.933594 6.078125 9.933594 6.078125 9.917969 6.070312 C 9.90625 6.0625 9.894531 6.058594 9.882812 6.050781 C 9.867188 6.042969 9.867188 6.042969 9.855469 6.035156 C 9.832031 6.023438 9.832031 6.023438 9.820312 6.011719 C 9.785156 6.007812 9.753906 6.003906 9.71875 6 C 9.707031 5.996094 9.699219 5.996094 9.6875 5.996094 C 9.664062 5.992188 9.640625 5.988281 9.617188 5.988281 C 9.582031 5.984375 9.546875 5.980469 9.507812 5.976562 C 9.417969 5.964844 9.328125 5.953125 9.234375 5.945312 C 9.160156 5.933594 9.082031 5.925781 9.007812 5.917969 C 8.96875 5.914062 8.933594 5.910156 8.898438 5.90625 C 8.875 5.902344 8.855469 5.898438 8.832031 5.898438 C 8.820312 5.894531 8.8125 5.894531 8.800781 5.894531 C 8.632812 5.875 8.632812 5.875 8.5625 5.835938 C 8.554688 5.832031 8.546875 5.828125 8.539062 5.824219 C 8.53125 5.820312 8.523438 5.816406 8.515625 5.8125 C 8.503906 5.804688 8.496094 5.800781 8.488281 5.796875 C 8.417969 5.757812 8.355469 5.714844 8.296875 5.660156 C 8.289062 5.65625 8.28125 5.648438 8.277344 5.644531 C 8.128906 5.53125 7.984375 5.308594 7.960938 5.125 C 7.957031 5.105469 7.953125 5.082031 7.953125 5.0625 C 7.949219 5.050781 7.949219 5.039062 7.949219 5.027344 C 7.945312 5.003906 7.941406 4.980469 7.9375 4.957031 C 7.933594 4.917969 7.929688 4.878906 7.925781 4.839844 C 7.910156 4.707031 7.894531 4.574219 7.882812 4.441406 C 7.863281 4.195312 7.832031 3.953125 7.769531 3.710938 C 7.765625 3.699219 7.765625 3.699219 7.761719 3.683594 C 7.757812 3.671875 7.757812 3.671875 7.753906 3.660156 C 7.726562 3.542969 7.703125 3.425781 7.683594 3.308594 C 7.679688 3.300781 7.679688 3.289062 7.675781 3.277344 C 7.660156 3.183594 7.640625 3.09375 7.625 3 C 7.625 2.988281 7.621094 2.976562 7.621094 2.964844 C 7.609375 2.871094 7.621094 2.78125 7.632812 2.691406 C 7.632812 2.675781 7.632812 2.664062 7.636719 2.652344 C 7.640625 2.609375 7.644531 2.566406 7.648438 2.527344 C 7.65625 2.46875 7.664062 2.410156 7.667969 2.351562 C 7.671875 2.335938 7.671875 2.320312 7.675781 2.304688 C 7.683594 2.21875 7.691406 2.128906 7.699219 2.039062 C 7.734375 1.625 7.734375 1.625 7.804688 1.441406 C 7.808594 1.433594 7.8125 1.421875 7.816406 1.414062 C 7.859375 1.300781 7.910156 1.203125 7.992188 1.113281 C 8 1.101562 8.007812 1.09375 8.015625 1.082031 C 8.128906 0.949219 8.320312 0.875 8.484375 0.828125 C 8.492188 0.824219 8.503906 0.820312 8.515625 0.816406 C 8.617188 0.789062 8.703125 0.789062 8.800781 0.820312 Z M 8.800781 0.820312 "/>
</g>
</svg>
